<svg xmlns:dc="http://purl.org/dc/elements/1.1/" xmlns:cc="http://creativecommons.org/ns#" xmlns:rdf="http://www.w3.org/1999/02/22-rdf-syntax-ns#" xmlns:svg="http://www.w3.org/2000/svg" xmlns="http://www.w3.org/2000/svg" xmlns:sodipodi="http://sodipodi.sourceforge.net/DTD/sodipodi-0.dtd" xmlns:inkscape="http://www.inkscape.org/namespaces/inkscape" viewBox="0 0 5000.0002 6249.999749999999" version="1.1" x="0px" y="0px"><g transform="translate(-115,4345.4951)"><path style="color:#000000;font-style:normal;font-variant:normal;font-weight:normal;font-stretch:normal;font-size:medium;line-height:normal;font-family:sans-serif;text-indent:0;text-align:start;text-decoration:none;text-decoration-line:none;text-decoration-style:solid;text-decoration-color:#000000;letter-spacing:normal;word-spacing:normal;text-transform:none;direction:ltr;block-progression:tb;writing-mode:lr-tb;baseline-shift:baseline;text-anchor:start;white-space:normal;clip-rule:nonzero;display:inline;overflow:visible;visibility:visible;opacity:1;isolation:auto;mix-blend-mode:normal;color-interpolation:sRGB;color-interpolation-filters:linearRGB;solid-color:#000000;solid-opacity:1;fill:#000000;fill-opacity:1;fill-rule:nonzero;stroke:none;stroke-width:200;stroke-linecap:round;stroke-linejoin:round;stroke-miterlimit:4;stroke-dasharray:none;stroke-dashoffset:0;stroke-opacity:1;color-rendering:auto;image-rendering:auto;shape-rendering:auto;text-rendering:auto;enable-background:accumulate" d="m 2427.3887,-3417.1309 a 100.01,100.01 0 0 0 -1.8985,0.1231 100.01,100.01 0 0 0 -4.955,0.3223 100.01,100.01 0 0 0 -5.0059,0.5175 100.01,100.01 0 0 0 -4.9121,0.8184 100.01,100.01 0 0 0 -4.8965,1.0078 100.01,100.01 0 0 0 -4.7949,1.3008 100.01,100.01 0 0 0 -4.8067,1.5039 100.01,100.01 0 0 0 -4.6503,1.7773 100.01,100.01 0 0 0 -4.5958,1.959 100.01,100.01 0 0 0 -4.4648,2.2403 100.01,100.01 0 0 0 -4.375,2.4062 100.01,100.01 0 0 0 -4.2363,2.6855 100.01,100.01 0 0 0 -4.0996,2.8243 100.01,100.01 0 0 0 -3.9121,3.0664 100.01,100.01 0 0 0 -3.8477,3.2597 100.01,100.01 0 0 0 -3.5664,3.4258 100.01,100.01 0 0 0 -3.5,3.625 100.01,100.01 0 0 0 -3.2168,3.7754 100.01,100.01 0 0 0 -3.1133,3.9453 100.01,100.01 0 0 0 -2.9844,4.3106 100.01,100.01 0 0 0 -2.3613,3.6797 100.01,100.01 0 0 0 -0.9023,1.4043 l -227.9942,394.8964 -227.9922,394.8965 a 100.01,100.01 0 1 0 173.2051,100 l 227.9922,-394.8965 41.3906,-71.6914 0,1873.8868 a 100.01,100.01 0 1 0 200,0 l 0,-1873.8887 41.3926,71.6933 227.9922,394.8965 a 100.01,100.01 0 1 0 173.2051,-100 l -227.9922,-394.8965 -227.9942,-394.8964 a 100.01,100.01 0 0 0 -1.6933,-2.6211 100.01,100.01 0 0 0 -2.6934,-4.168 100.01,100.01 0 0 0 -2.9863,-4.0449 100.01,100.01 0 0 0 -3.1055,-3.8907 100.01,100.01 0 0 0 -3.3613,-3.7109 100.01,100.01 0 0 0 -3.4805,-3.5625 100.01,100.01 0 0 0 -3.7246,-3.3672 100.01,100.01 0 0 0 -3.8008,-3.1816 100.01,100.01 0 0 0 -4.0625,-2.9942 100.01,100.01 0 0 0 -4.0957,-2.7832 100.01,100.01 0 0 0 -4.3281,-2.5644 100.01,100.01 0 0 0 -4.3515,-2.3594 100.01,100.01 0 0 0 -4.5743,-2.1269 100.01,100.01 0 0 0 -4.5722,-1.9161 100.01,100.01 0 0 0 -4.7539,-1.6543 100.01,100.01 0 0 0 -4.7325,-1.4492 100.01,100.01 0 0 0 -4.8984,-1.1719 100.01,100.01 0 0 0 -4.8633,-0.9726 100.01,100.01 0 0 0 -4.9863,-0.6758 100.01,100.01 0 0 0 -4.9453,-0.4805 100.01,100.01 0 0 0 -4.9942,-0.1738 100.01,100.01 0 0 0 -3.1054,-0.1094 z M 891.4375,-1686.3613 a 100.01,100.01 0 0 0 -98.49414,101.4121 l 0,986.35154 a 100.01,100.01 0 0 0 100,100 l 3071.90434,0 a 100.01,100.01 0 0 0 100,-100 l 0,-986.35154 a 100.01,100.01 0 1 0 -200,0 l 0,886.35154 -2871.90434,0 0,-886.35154 A 100.01,100.01 0 0 0 891.4375,-1686.3613 Z"/></g><text x="0" y="5014.9998" fill="#000000" font-size="5px" font-weight="bold" font-family="'Helvetica Neue', Helvetica, Arial-Unicode, Arial, Sans-serif">Created by Idham Bahende</text><text x="0" y="5019.9998" fill="#000000" font-size="5px" font-weight="bold" font-family="'Helvetica Neue', Helvetica, Arial-Unicode, Arial, Sans-serif">from the Noun Project</text></svg>